:SAMPLES-PER-SECOND 30
:FULLY-SPECIFIED
:DEGREES
47
root  63.0995 39.4955 -5.20896 -172.107 -76.6806 173.115
RightUpLeg  1.59781 -12.9719 -4.46512
RightLeg  16.6476 -3.71592 2.28346
RightFoot  -16.0954 -0.143053 -0.840325
RightToes  0.00048216 0.542163 -0.142577
Spine  14.276 0.876959 8.49915
Spine1  11.1135 3.24226 -4.57459
HEad  -16.1626 5.95032 -5.26211
LeftShoulder1  7.72442 -12.2067 -42.731
LeftArm  -4.01144 6.62833 -29.4998
LeftForeArm  29.2707 -21.1221 -3.56729
LeftHand  -0.25398 0.0180481 5.50724
RightShoulder  4.03736 7.66142 30.1999
RightArm  -16.8351 10.3661 34.5008
RightForeArm  2.34454 39.4453 9.08161
RightHand  -1.15565 1.79332 -18.7572
LeftUpLeg  -25.1054 9.17999 -3.27356
LeftLeg  27.4739 2.92478 1.96626
LeftFoot  -2.79816 0.391022 -5.00811
LeftToes  1.0625e-005 4.65855e-005 -8.18498e-006
48
root  61.6981 39.4204 -5.45498 -170.037 -76.1591 171.138
RightUpLeg  4.53532 -12.6199 -5.91845
RightLeg  15.1769 -2.95881 2.79331
RightFoot  -16.7037 -0.0869924 0.55808
RightToes  0.00048216 0.542163 -0.142577
Spine  14.0929 1.25033 8.25147
Spine1  11.2682 3.89402 -5.61239
HEad  -17.1238 5.68502 -5.12464
LeftShoulder1  7.69457 -12.1838 -42.6213
LeftArm  -5.05096 8.52626 -28.0919
LeftForeArm  27.9902 -19.043 -3.97098
LeftHand  -0.25398 0.0180481 5.50724
RightShoulder  4.04488 7.71594 30.0899
RightArm  -15.0463 10.6163 33.7599
RightForeArm  2.23073 44.2768 10.7735
RightHand  -1.30036 2.08348 -20.2262
LeftUpLeg  -25.4087 10.0504 -4.64459
LeftLeg  20.7957 3.31499 1.70721
LeftFoot  -3.33136 0.266271 -3.50452
LeftToes  1.0625e-005 4.65855e-005 -8.18498e-006
49
root  60.2107 39.2798 -5.67233 -168.791 -75.8797 169.756
RightUpLeg  7.37286 -12.9207 -7.40035
RightLeg  14.785 -1.87319 3.01827
RightFoot  -17.0627 -0.0318508 1.6813
RightToes  0.00048216 0.542163 -0.142577
Spine  14.0296 1.46692 7.86872
Spine1  11.2053 4.26406 -6.22002
HEad  -17.7506 5.84855 -4.78544
LeftShoulder1  7.57294 -12.1062 -42.1234
LeftArm  -6.89578 10.1573 -27.2553
LeftForeArm  27.8533 -16.0123 -4.61278
LeftHand  -0.25398 0.0180481 5.50724
RightShoulder  4.07767 7.92807 29.702
RightArm  -12.5341 10.4067 33.4845
RightForeArm  2.60999 46.9714 11.8291
RightHand  -1.64434 3.399 -21.7899
LeftUpLeg  -25.6867 10.8683 -5.75708
LeftLeg  17.9643 4.40715 1.92275
LeftFoot  -4.52235 0.204858 -2.9993
LeftToes  1.0625e-005 4.65855e-005 -8.18498e-006
50
root  58.5968 39.0962 -5.86478 -168.418 -75.4652 169.238
RightUpLeg  9.63542 -13.9152 -8.87026
RightLeg  15.9339 -0.0978695 2.74143
RightFoot  -17.3165 0.0131048 2.45513
RightToes  0.00048216 0.542163 -0.142577
Spine  13.5376 1.68722 7.48611
Spine1  11.3475 4.59749 -6.67072
HEad  -18.0352 6.33133 -4.26878
LeftShoulder1  7.38752 -11.986 -41.3583
LeftArm  -8.88909 11.3816 -26.8098
LeftForeArm  28.9147 -12.4659 -5.17805
LeftHand  -0.25398 0.0180481 5.50724
RightShoulder  4.11108 8.17492 29.2242
RightArm  -9.54336 9.91195 33.9617
RightForeArm  3.81698 46.6975 11.6423
RightHand  -1.96633 4.89522 -22.299
LeftUpLeg  -25.5049 11.5158 -6.41114
LeftLeg  18.1098 5.65381 2.38745
LeftFoot  -4.84666 0.215416 -3.2809
LeftToes  1.0625e-005 4.65855e-005 -8.18498e-006
51
root  56.8603 38.889 -6.03695 -168.097 -74.3341 168.812
RightUpLeg  11.2304 -14.7434 -10.6118
RightLeg  18.1365 3.0569 2.18842
RightFoot  -17.1965 0.171116 5.62509
RightToes  0.00048216 0.542163 -0.142577
Spine  12.5431 2.14424 6.68886
Spine1  12.1006 5.21518 -7.21402
HEad  -18.0646 6.95317 -3.84107
LeftShoulder1  7.2947 -11.9518 -40.8945
LeftArm  -10.0088 12.227 -26.4403
LeftForeArm  29.0331 -8.97943 -5.37221
LeftHand  -0.25398 0.0180481 5.50724
RightShoulder  4.18504 8.3891 29.2113
RightArm  -6.19442 8.90381 34.8007
RightForeArm  4.0879 43.9023 10.5191
RightHand  -2.0426 5.50213 -21.8908
LeftUpLeg  -24.4497 11.6735 -6.835
LeftLeg  19.5444 6.99796 3.0753
LeftFoot  -3.96516 0.154941 -2.08553
LeftToes  1.0625e-005 4.65855e-005 -8.18498e-006
52
root  55.0693 38.7227 -6.19012 -167.188 -72.8082 167.739
RightUpLeg  11.2252 -12.9198 -12.0085
RightLeg  22.4478 3.93718 1.42841
RightFoot  -14.9739 0.22983 11.3053
RightToes  0.00048216 0.542163 -0.142577
Spine  11.7691 2.67809 5.07374
Spine1  12.8995 5.76146 -7.4423
HEad  -18.0129 7.81129 -3.58933
LeftShoulder1  7.39746 -12.0883 -41.1242
LeftArm  -10.1373 12.513 -26.2367
LeftForeArm  27.0026 -5.75611 -5.22727
LeftHand  -0.25398 0.0180481 5.50724
RightShoulder  4.37037 8.66291 29.9554
RightArm  -2.52711 7.07607 35.5255
RightForeArm  2.13394 39.5512 9.12643
RightHand  -1.88484 5.01949 -21.1518
LeftUpLeg  -22.8002 11.2196 -7.44842
LeftLeg  21.6158 8.3946 3.97739
LeftFoot  -3.82086 -0.0356855 0.987331
LeftToes  1.0625e-005 4.65855e-005 -8.18498e-006
53
root  53.2934 38.6641 -6.32084 -166.419 -71.9753 166.657
RightUpLeg  8.06732 -8.92318 -12.2494
RightLeg  31.5641 -0.189085 -0.486256
RightFoot  -7.63485 -0.449056 13.6086
RightToes  0.00048216 0.542163 -0.142577
Spine  12.0466 2.8153 3.13911
Spine1  12.7565 5.55828 -6.75999
HEad  -18.2945 8.85304 -3.43286
LeftShoulder1  7.65245 -12.3901 -41.7833
LeftArm  -10.2649 11.6887 -26.61
LeftForeArm  25.0029 -2.98515 -5.06282
LeftHand  -0.25398 0.0180481 5.50724
RightShoulder  4.65193 9.03791 31.1428
RightArm  1.12719 4.31298 36.2041
RightForeArm  -0.999626 34.5134 7.79026
RightHand  -1.66304 4.13663 -20.4028
LeftUpLeg  -20.7732 10.2846 -8.04635
LeftLeg  24.0626 9.66499 5.01989
LeftFoot  -6.22303 -0.101681 3.06018
LeftToes  1.0625e-005 4.65855e-005 -8.18498e-006
54
root  51.6293 38.593 -6.44219 -165.395 -72.0669 165.177
RightUpLeg  1.63455 -6.66181 -12.0416
RightLeg  44.6736 -3.59892 -4.06744
RightFoot  4.79036 -1.16307 8.78163
RightToes  0.00048216 0.542163 -0.142577
Spine  13.5677 2.52974 1.07516
Spine1  11.8403 4.65673 -5.52157
HEad  -19.4947 9.78303 -3.51606
LeftShoulder1  7.95742 -12.795 -42.4128
LeftArm  -10.2352 9.26898 -27.5822
LeftForeArm  24.9731 -1.56702 -5.09719
LeftHand  -0.25398 0.0180481 5.50724
RightShoulder  4.95179 9.40437 32.4204
RightArm  4.16359 0.653655 37.0634
RightForeArm  -3.30639 29.7965 6.66241
RightHand  -1.59364 3.84774 -20.1615
LeftUpLeg  -18.6348 9.30271 -8.56358
LeftLeg  26.6775 10.3744 5.95277
LeftFoot  -10.5847 0.0401752 2.08053
LeftToes  1.0625e-005 4.65855e-005 -8.18498e-006
55
root  50.1096 38.321 -6.58189 -162.952 -72.2187 162.239
RightUpLeg  -6.27083 -4.9918 -12.0013
RightLeg  56.8279 -3.29232 -5.72824
RightFoot  13.8895 -0.579898 2.81785
RightToes  0.00048216 0.542163 -0.142577
Spine  15.6365 2.24753 -1.53492
Spine1  11.2196 3.63122 -4.66076
HEad  -21.8171 10.5163 -3.96784
LeftShoulder1  8.23475 -13.1495 -42.9932
LeftArm  -9.82464 5.33128 -28.5707
LeftForeArm  26.5671 -2.46258 -5.45369
LeftHand  -0.25398 0.0180481 5.50724
RightShoulder  5.22582 9.65529 33.767
RightArm  6.60642 -3.66427 38.0762
RightForeArm  -4.45485 26.2095 5.84563
RightHand  -1.76158 4.43387 -20.9316
LeftUpLeg  -16.8925 8.74732 -9.48983
LeftLeg  29.6007 10.3826 6.66397
LeftFoot  -15.0658 0.091724 -0.0601942
LeftToes  1.0625e-005 4.65855e-005 -8.18498e-006
56
root  48.5212 38.0264 -6.72382 -161.297 -72.3829 160.28
RightUpLeg  -13.99 -3.92566 -11.5872
RightLeg  65.0168 -1.74849 -4.74966
RightFoot  13.1023 -0.136504 1.05123
RightToes  0.00048216 0.542163 -0.142577
Spine  17.3654 1.7938 -3.41016
Spine1  10.9544 2.56662 -3.98659
HEad  -24.534 11.2177 -4.5394
LeftShoulder1  8.43259 -13.282 -43.7199
LeftArm  -9.34935 0.463685 -29.2399
LeftForeArm  27.9711 -5.77482 -6.00463
LeftHand  -0.25398 0.0180481 5.50724
RightShoulder  5.44673 9.77798 35.0481
RightArm  9.26631 -8.31347 39.1969
RightForeArm  -5.60334 23.474 5.38102
RightHand  -2.02948 5.27914 -22.1926
LeftUpLeg  -14.9573 8.46434 -10.2611
LeftLeg  31.9024 10.3562 7.23701
LeftFoot  -18.5134 0.0842916 -0.50529
LeftToes  1.0625e-005 4.65855e-005 -8.18498e-006
